<svg width="122" height="113" viewBox="0 0 122 113" fill="none" xmlns="http://www.w3.org/2000/svg">
<path d="M2.26107 101.655C3.36561 87.3039 16.9651 83.486 27.5158 78.3249C29.6946 77.2588 34.3336 74.8672 34.9661 72.3593C35.1765 71.5265 35.0996 64.3575 34.8669 63.627C34.7416 63.234 32.3541 60.0958 31.8036 58.9873C31.0341 57.4394 30.0265 53.4664 29.4656 52.6557C29.2306 52.3162 28.319 51.9346 27.9152 51.5244C25.8167 49.3945 24.6096 44.5484 24.9611 41.6228C25.0983 40.4784 26.2782 38.8101 26.311 37.9641C26.3529 36.8825 25.4542 34.5732 25.2621 33.3854C23.6972 23.7098 23.8375 12.2181 32.5567 6.06682C38.669 1.75509 51.0049 -0.0405957 57.4538 4.17763C58.1617 4.64068 59.1805 5.85162 59.8088 6.11715C61.0405 6.63715 62.5164 6.77324 63.8703 7.48164C72.6453 12.0756 72.3286 24.3618 71.0294 32.8799C70.8116 34.3091 69.9363 36.2683 70.2583 37.686C70.3785 38.2162 70.8742 38.7466 71.0627 39.2966C72.2187 42.6694 71.2693 48.3403 68.7201 50.9257C68.3375 51.3133 67.5141 51.6285 67.4008 51.8247C67.0077 52.5045 66.5446 55.5491 66.1465 56.6821C65.5318 58.4289 62.9163 62.2418 62.7346 63.0371C62.3749 64.6127 62.5857 69.7606 62.8486 71.4272C63.2407 73.9193 67.88 76.1017 69.884 77.0847C67.3739 84.7978 67.5446 93.2003 71.2327 100.5C71.5961 101.219 73.8141 104.441 73.5456 104.824C73.3628 104.88 73.2551 104.589 73.1866 104.591L2.35701 106.114C2.42812 104.674 2.1519 103.074 2.2611 101.656L2.26107 101.655Z" fill="#E8DCF5"/>
<path d="M96.5546 12.1382C101.778 16.3596 101.09 28.1907 100.211 34.098C100.161 34.437 99.8172 34.7608 99.802 35.134C99.7785 35.6954 100.842 36.8583 101.015 37.7561C101.499 40.271 100.899 43.743 99.3048 45.8035C98.8621 46.3753 97.747 47.0852 97.5459 47.4046C97.004 48.2647 96.4733 50.5065 95.7651 51.7753C95.1919 52.8028 94.2775 54.0975 93.5653 55.0547C93.2348 55.4991 92.3071 56.2064 92.1691 56.5325C91.936 57.0836 92.2108 57.8651 91.9781 58.2127C91.8283 58.437 87.5843 59.503 86.7624 59.8183C80.9973 62.0256 75.7128 66.3468 72.7545 71.6397C72.2029 72.0513 68.5343 70.0913 68.0218 69.3922C67.7921 68.9229 67.6955 64.7531 67.7965 64.0704C67.9088 63.3115 69.8442 60.3717 70.3388 59.2533C71.0501 57.6471 71.4322 55.467 72.0533 54.1228C72.2632 53.6682 73.209 53.0392 73.5751 52.5315C76.7297 48.1547 77.4258 43.2382 76.3462 38.059C76.2188 37.4484 75.7315 36.8684 75.6933 36.1114C75.6232 34.7303 76.4776 32.1121 76.6701 30.5628C77.5299 23.6489 77.274 16.2042 73.5877 10.0827C73.3138 9.62843 71.3949 7.35468 71.636 7.11167C76.4665 5.95572 83.1204 5.20998 87.5398 7.90894C88.2609 8.34958 88.7094 9.03189 89.4095 9.38834C91.6475 10.5293 94.1299 10.1789 96.5546 12.1388L96.5546 12.1382Z" fill="#E8DCF5"/>
<path d="M111.403 67.6226C123.403 76.566 124.541 94.5962 113.308 104.67C96.0827 120.117 69.3692 104.872 73.7294 82.2523C76.9972 65.3001 97.4768 57.2423 111.403 67.6226ZM110.158 101.012C121.214 90.9348 116.768 72.5371 102.44 68.5074C86.5576 64.0405 72.7802 80.3808 79.8597 95.2415C85.3949 106.859 100.64 109.686 110.158 101.012Z" fill="url(#paint0_linear_1339_1382)"/>
<path d="M99.6821 87.8165L99.2759 88.4344L89.1845 96.0785C88.9913 96.0372 86.8122 93.2537 86.6947 93.0063C86.5701 92.7434 86.4882 92.5693 86.6762 92.3018L94.3409 86.2303C94.4738 86.0862 94.83 85.6419 94.8274 85.5211L94.5513 72.687L98.9942 72.5914L99.3621 72.9434L99.6821 87.8165Z" fill="url(#paint1_linear_1339_1382)"/>
<defs>
<linearGradient id="paint0_linear_1339_1382" x1="96.6622" y1="63.0114" x2="97.6931" y2="110.938" gradientUnits="userSpaceOnUse">
<stop stop-color="#5417A3"/>
<stop offset="1" stop-color="#410F80"/>
</linearGradient>
<linearGradient id="paint1_linear_1339_1382" x1="92.7475" y1="72.7258" x2="93.248" y2="95.9911" gradientUnits="userSpaceOnUse">
<stop stop-color="#5417A3"/>
<stop offset="1" stop-color="#410F80"/>
</linearGradient>
</defs>
</svg>
