<svg width="207" height="111" viewBox="0 0 207 111" fill="none" xmlns="http://www.w3.org/2000/svg">
<path d="M12.0367 103.905C12.0845 104.47 12.0675 104.964 11.9857 105.388C11.9039 105.812 11.7705 106.169 11.5855 106.458C11.4033 106.748 11.1753 106.971 10.9016 107.128C10.6307 107.285 10.33 107.378 9.9994 107.406C9.66881 107.434 9.35681 107.393 9.06341 107.284C8.77286 107.175 8.51347 106.992 8.28526 106.738C8.05704 106.483 7.86699 106.153 7.71512 105.749C7.56609 105.345 7.46767 104.86 7.41988 104.295C7.37209 103.73 7.38767 103.236 7.46664 102.812C7.54845 102.388 7.68045 102.032 7.86262 101.742C8.04479 101.453 8.27002 101.231 8.5383 101.077C8.80918 100.92 9.10992 100.828 9.44051 100.8C9.7711 100.772 10.0831 100.812 10.3765 100.922C10.6725 101.028 10.9346 101.208 11.1628 101.463C11.3939 101.717 11.5854 102.047 11.7372 102.451C11.8891 102.855 11.989 103.34 12.0367 103.905ZM10.6688 104.02C10.631 103.574 10.573 103.211 10.4949 102.931C10.4164 102.649 10.3247 102.43 10.2198 102.275C10.1177 102.12 10.0071 102.018 9.88812 101.968C9.76887 101.916 9.65082 101.895 9.53397 101.905C9.41712 101.914 9.30433 101.955 9.19559 102.027C9.08944 102.096 8.99908 102.215 8.9245 102.385C8.85276 102.555 8.80196 102.786 8.77208 103.077C8.7448 103.365 8.75006 103.733 8.78784 104.179C8.82588 104.629 8.88255 104.994 8.95788 105.273C9.03605 105.553 9.12489 105.771 9.2244 105.93C9.32651 106.085 9.43576 106.189 9.55216 106.242C9.67117 106.291 9.78909 106.311 9.90594 106.301C10.0228 106.291 10.1357 106.252 10.2447 106.183C10.3534 106.111 10.4451 105.99 10.5197 105.82C10.5969 105.647 10.6505 105.416 10.6807 105.127C10.7108 104.839 10.7068 104.47 10.6688 104.02Z" fill="#E8DCF5"/>
<path d="M18.4284 106.621L16.9835 106.744C16.8894 106.751 16.8105 106.734 16.7466 106.692C16.6856 106.65 16.6353 106.597 16.5956 106.535L15.1559 104.378C15.1386 104.445 15.1177 104.503 15.0932 104.553L14.1076 106.746C14.0727 106.808 14.0303 106.867 13.9804 106.922C13.9305 106.976 13.8628 107.008 13.7773 107.015L12.4265 107.129L14.1499 103.632L11.9565 100.658L13.4014 100.536C13.4955 100.528 13.565 100.536 13.61 100.559C13.6576 100.579 13.701 100.617 13.7402 100.673L15.1642 102.746C15.1752 102.707 15.1878 102.668 15.2019 102.631C15.2188 102.594 15.2371 102.555 15.2566 102.515L16.1788 100.489C16.2132 100.42 16.2505 100.37 16.2907 100.336C16.3338 100.303 16.3882 100.284 16.4537 100.278L17.8388 100.161L16.1453 103.401L18.4284 106.621Z" fill="#E8DCF5"/>
<path d="M45.1314 24.9918C45.264 24.9806 45.3723 25.0136 45.4563 25.0908C45.54 25.165 45.5876 25.2694 45.5989 25.4039L45.6672 26.2112L41.594 26.5558L41.5561 26.1073C41.5488 26.0206 41.5568 25.9266 41.5803 25.8252C41.6038 25.7239 41.6519 25.6295 41.7246 25.542L43.2348 23.5036C43.3643 23.33 43.4759 23.1655 43.5696 23.01C43.6633 22.8546 43.7386 22.7036 43.7957 22.5573C43.8525 22.4079 43.8922 22.2615 43.9148 22.1181C43.9371 21.9717 43.9416 21.8192 43.9282 21.6608C43.9062 21.4006 43.8336 21.2065 43.7106 21.0784C43.59 20.9471 43.417 20.891 43.1916 20.91C43.0086 20.9255 42.8582 20.994 42.7403 21.1153C42.6247 21.2335 42.5499 21.3754 42.5159 21.5409C42.4741 21.71 42.4104 21.8253 42.3248 21.8868C42.2392 21.9482 42.1116 21.971 41.942 21.9553L41.2786 21.8804C41.2935 21.5509 41.3503 21.26 41.4492 21.0078C41.5507 20.7553 41.6834 20.5408 41.8474 20.3643C42.0141 20.1876 42.2095 20.0506 42.4336 19.9533C42.6575 19.8531 42.902 19.7918 43.1672 19.7693C43.4536 19.7451 43.7149 19.7712 43.951 19.8476C44.1896 19.9207 44.3968 20.0342 44.5727 20.1879C44.7487 20.3417 44.8889 20.5316 44.9935 20.7576C45.1005 20.9804 45.1658 21.2308 45.1893 21.5089C45.2095 21.7481 45.1977 21.9719 45.154 22.1804C45.1128 22.3886 45.0484 22.5898 44.9606 22.7839C44.8726 22.9751 44.767 23.1632 44.6438 23.3483C44.523 23.5301 44.3931 23.7158 44.2543 23.9052L43.2314 25.3106C43.3729 25.2475 43.5142 25.1964 43.6551 25.1573C43.796 25.1183 43.9275 25.0937 44.0495 25.0833L45.1314 24.9918Z" fill="#E8DCF5"/>
<path d="M51.5032 25.7175L50.1587 25.8312C50.0712 25.8386 49.9976 25.8207 49.9378 25.7776C49.8807 25.7343 49.8335 25.6811 49.7961 25.618L48.4411 23.429C48.4255 23.4966 48.4064 23.5554 48.3839 23.6055L47.4811 25.8138C47.449 25.8768 47.41 25.9358 47.3639 25.9909C47.3178 26.046 47.255 26.0769 47.1754 26.0836L45.9184 26.1899L47.4994 22.6685L45.4372 19.6496L46.7817 19.5358C46.8692 19.5284 46.934 19.5365 46.976 19.56C47.0205 19.5803 47.0612 19.6191 47.098 19.6762L48.4379 21.7806C48.4479 21.7406 48.4593 21.702 48.4722 21.6648C48.4877 21.6273 48.5044 21.5883 48.5223 21.5476L49.3672 19.5068C49.3988 19.4379 49.4332 19.3868 49.4705 19.3535C49.5104 19.32 49.5608 19.3007 49.6218 19.2955L50.9106 19.1865L49.3557 22.4482L51.5032 25.7175Z" fill="#E8DCF5"/>
<path d="M134.119 7.35144C134.137 7.02517 134.201 6.73681 134.309 6.48635C134.42 6.23565 134.565 6.02234 134.743 5.84641C134.924 5.67025 135.136 5.53319 135.378 5.43525C135.62 5.33435 135.884 5.2718 136.17 5.24761C136.478 5.22149 136.757 5.24412 137.005 5.31549C137.252 5.3839 137.466 5.48799 137.644 5.62777C137.823 5.76754 137.964 5.93584 138.067 6.13267C138.17 6.32654 138.231 6.53586 138.25 6.76065C138.267 6.96473 138.262 7.14685 138.236 7.30699C138.209 7.46418 138.16 7.60384 138.09 7.72596C138.022 7.84489 137.933 7.94924 137.822 8.03901C137.715 8.12559 137.589 8.20179 137.444 8.2676C138.158 8.46047 138.545 8.91923 138.606 9.64388C138.635 9.98697 138.6 10.2908 138.502 10.5553C138.403 10.8198 138.26 11.045 138.071 11.2307C137.885 11.4163 137.663 11.5632 137.404 11.6714C137.145 11.7767 136.871 11.8416 136.583 11.866C136.285 11.8912 136.018 11.881 135.781 11.8355C135.544 11.7871 135.329 11.701 135.137 11.5772C134.945 11.4505 134.771 11.2835 134.615 11.0762C134.462 10.8687 134.323 10.6184 134.198 10.3252L134.768 10.0266C134.918 9.95146 135.059 9.9231 135.193 9.94155C135.327 9.96 135.427 10.02 135.493 10.1217C135.643 10.3563 135.794 10.5237 135.946 10.624C136.101 10.7211 136.276 10.7615 136.471 10.745C136.619 10.7324 136.746 10.6964 136.85 10.637C136.957 10.5743 137.043 10.5 137.108 10.4141C137.175 10.325 137.223 10.2271 137.251 10.1204C137.28 10.0138 137.289 9.90719 137.28 9.80071C137.269 9.6617 137.248 9.53832 137.219 9.43058C137.192 9.31964 137.133 9.22787 137.04 9.15526C136.948 9.08266 136.812 9.03303 136.634 9.00638C136.459 8.97653 136.217 8.97466 135.908 9.00079L135.828 8.05135C136.088 8.02934 136.297 7.99086 136.453 7.93591C136.61 7.88095 136.728 7.81436 136.808 7.73612C136.89 7.65467 136.941 7.56098 136.961 7.45504C136.981 7.3491 136.986 7.23402 136.975 7.1098C136.953 6.85543 136.877 6.6653 136.745 6.53941C136.616 6.41031 136.43 6.35604 136.187 6.3766C135.99 6.39329 135.827 6.46216 135.699 6.58321C135.574 6.70105 135.492 6.84201 135.455 7.00608C135.408 7.17384 135.339 7.28844 135.246 7.34991C135.153 7.41137 135.016 7.43493 134.833 7.42059L134.119 7.35144Z" fill="#E8DCF5"/>
<path d="M145.073 11.0762L143.623 11.1989C143.529 11.2069 143.45 11.1897 143.386 11.1475C143.325 11.105 143.274 11.0527 143.234 10.9905L141.791 8.83379C141.773 8.90079 141.752 8.95917 141.728 9.00891L140.738 11.2017C140.703 11.2642 140.661 11.3229 140.611 11.3778C140.561 11.4327 140.493 11.4637 140.407 11.471L139.052 11.5856L140.782 8.08804L138.582 5.115L140.032 4.99237C140.126 4.98439 140.196 4.99189 140.241 5.01488C140.289 5.03467 140.332 5.0727 140.371 5.12895L141.799 7.2021C141.81 7.16244 141.823 7.12414 141.837 7.08719C141.854 7.05001 141.873 7.01122 141.892 6.97083L142.818 4.94432C142.852 4.87587 142.89 4.82504 142.93 4.79183C142.973 4.75838 143.028 4.73888 143.094 4.73332L144.483 4.61576L142.783 7.85613L145.073 11.0762Z" fill="#E8DCF5"/>
<path d="M197.52 84.7982L197.374 83.0753C197.365 82.9695 197.358 82.8559 197.354 82.7345C197.352 82.6099 197.352 82.4805 197.355 82.3463L195.945 84.9315L197.52 84.7982ZM199.284 84.649L199.35 85.4379C199.356 85.5075 199.339 85.5698 199.299 85.625C199.261 85.6799 199.201 85.7108 199.12 85.7177L198.742 85.7497L198.871 87.2686L197.737 87.3645L197.608 85.8456L195.147 86.0538C195.066 86.0607 194.99 86.0397 194.918 85.991C194.849 85.9421 194.803 85.8775 194.779 85.7973L194.586 85.115L197.069 80.7677L198.312 80.6625L198.654 84.7023L199.284 84.649Z" fill="#E8DCF5"/>
<path d="M205.532 86.705L204.113 86.8251C204.02 86.8329 203.943 86.8151 203.88 86.7717C203.82 86.7281 203.77 86.6745 203.731 86.6108L202.309 84.4022C202.292 84.4706 202.272 84.5302 202.248 84.5809L201.287 86.8176C201.252 86.8814 201.211 86.9412 201.162 86.9971C201.113 87.053 201.047 87.0845 200.963 87.0916L199.636 87.2039L201.318 83.6367L199.152 80.5914L200.572 80.4713C200.664 80.4635 200.733 80.4714 200.777 80.495C200.824 80.5154 200.867 80.5544 200.905 80.612L202.312 82.7352C202.322 82.6947 202.334 82.6556 202.348 82.618C202.365 82.58 202.382 82.5405 202.402 82.4993L203.301 80.4322C203.335 80.3624 203.371 80.3106 203.411 80.2768C203.453 80.2428 203.506 80.2231 203.57 80.2176L204.931 80.1025L203.278 83.4069L205.532 86.705Z" fill="#E8DCF5"/>
<path d="M189.819 87.7594L98.1058 98.455C98.9326 97.7132 99.413 96.6065 99.3123 95.4164C99.2116 94.2264 98.549 93.2163 97.6094 92.624L189.819 87.7594Z" fill="url(#paint0_linear_1339_1418)"/>
<path d="M101.945 92.3769C100.644 89.9416 97.9793 88.3818 95.0606 88.6287C91.1459 88.9599 88.2304 92.4143 88.5613 96.3258C88.8922 100.237 92.3469 103.156 96.2616 102.825C99.1803 102.578 101.548 100.589 102.421 97.9699C102.718 97.0806 102.841 96.1176 102.757 95.1248C102.673 94.1321 102.39 93.2035 101.945 92.3769ZM95.9701 99.3799C93.9533 99.5505 92.1768 98.0512 92.0062 96.0344C91.8356 94.0176 93.3352 92.2442 95.352 92.0736C96.1756 92.0039 96.96 92.2151 97.6096 92.6238C98.5492 93.2162 99.2118 94.2262 99.3125 95.4163C99.4132 96.6063 98.9328 97.7131 98.1061 98.4548C97.5346 98.97 96.7938 99.3102 95.9701 99.3799Z" fill="url(#paint1_linear_1339_1418)"/>
<path d="M30.2508 103.412L20.7167 104.219L20.4466 99.5991C18.3566 63.7504 39.2112 30.3394 72.3457 16.4517C80.5628 13.0071 89.1898 10.8855 97.9861 10.1413C115.714 8.64157 133.201 12.6836 148.563 21.831C164.235 31.1634 176.253 45.0139 183.323 61.8854C185.775 67.7312 187.571 73.8438 188.661 80.0425L189.517 84.8994L157.103 87.6417L156.179 83.9068C155.399 80.7519 154.356 77.6042 153.077 74.5595C142.321 48.8954 116.485 33.2269 88.7777 35.571C82.1533 36.1314 75.6545 37.7297 69.4627 40.3279C45.6452 50.3083 30.2536 73.4437 30.2508 99.2674L30.2508 103.412ZM22.1291 102.591L28.7497 102.031L28.75 99.27C28.7538 72.8351 44.5068 49.1562 68.8855 38.9435C75.2232 36.2877 81.8734 34.6502 88.6551 34.0765C117.01 31.6776 143.458 47.713 154.465 73.982C155.773 77.0997 156.841 80.3207 157.639 83.5495L158.253 86.0395L187.75 83.544L187.182 80.3034C186.112 74.2124 184.345 68.2106 181.939 62.4664C174.996 45.8934 163.187 32.2892 147.793 23.1219C132.705 14.1361 115.526 10.1661 98.1128 11.6392C89.4701 12.3704 80.9984 14.4562 72.927 17.8395C40.3787 31.4777 19.8928 64.2993 21.9476 99.5098L22.1291 102.591Z" fill="#CDA7FF"/>
<path d="M60.172 39.8884C62.5824 38.5115 65.0982 37.2653 67.7246 36.1681C74.6123 33.281 81.7012 31.6139 88.7632 31.0542L87.5162 16.315C83.0012 17.3344 78.5092 18.7591 74.091 20.6113C66.9629 23.598 60.4925 27.4945 54.758 32.1094L60.172 39.8884Z" fill="#CDA7FF"/>
<path d="M136.505 20.7693L127.649 39.618C135.406 43.9703 142.352 49.847 147.989 57.0452L167.169 43.6969C158.847 33.5578 148.265 25.7673 136.502 20.7696L136.505 20.7693Z" fill="#CDA7FF"/>
<path d="M94.399 30.8374C103.956 30.8774 113.336 32.9314 121.938 36.7558L130.516 18.4964C118.655 14.5328 105.838 13.3202 93.0814 15.2631L94.399 30.8374Z" fill="#CDA7FF"/>
<path d="M34.5535 65.7106C39.7557 56.4527 47.1261 48.3503 56.3298 42.2576L51.3148 35.0483C42.3517 43.1384 35.4421 53.0763 30.9283 64.0071L34.5573 65.7103L34.5535 65.7106Z" fill="#CDA7FF"/>
<path d="M171.668 49.7278L152.296 63.2093C154.162 66.2308 155.821 69.4358 157.238 72.8159C158.622 76.1157 159.728 79.4618 160.559 82.8273L184.222 80.8254C183.204 75.0392 181.532 69.2745 179.165 63.629C177.086 58.6681 174.563 54.0276 171.668 49.7278Z" fill="#CDA7FF"/>
<path d="M29.6959 67.1664C25.9824 77.3468 24.3096 88.2899 24.9536 99.335L25.7475 99.2678C25.749 88.5868 28.2732 78.1223 32.9677 68.7037L29.6959 67.1664Z" fill="#CDA7FF"/>
<path d="M171.482 85.2977L150.062 87.1098L150.126 87.8588L171.546 86.0466L171.482 85.2977Z" fill="#CDA7FF"/>
<path d="M152.484 71.3088L145.379 73.8719L145.634 74.579L152.74 72.0158L152.484 71.3088Z" fill="#CDA7FF"/>
<path d="M143.916 57.9115L137.719 62.2231L138.148 62.8401L144.346 58.5285L143.916 57.9115Z" fill="#CDA7FF"/>
<path d="M132.314 46.9867L127.449 52.7506L128.024 53.2354L132.888 47.4714L132.314 46.9867Z" fill="#CDA7FF"/>
<path d="M118.348 39.2267L115.141 46.0449L115.821 46.3648L119.028 39.5467L118.348 39.2267Z" fill="#CDA7FF"/>
<path d="M102.781 35.1381L101.453 42.5437L102.193 42.6763L103.521 35.2707L102.781 35.1381Z" fill="#CDA7FF"/>
<path d="M87.2646 34.9787L86.5156 35.0421L87.1496 42.5352L87.8985 42.4718L87.2646 34.9787Z" fill="#CDA7FF"/>
<path d="M71.2499 38.8176L70.543 39.0728L73.0946 46.1425L73.8016 45.8874L71.2499 38.8176Z" fill="#CDA7FF"/>
<path d="M56.5036 46.6985L55.8867 47.1279L60.1834 53.2995L60.8002 52.87L56.5036 46.6985Z" fill="#CDA7FF"/>
<path d="M44.1176 58.2969L43.6328 58.8713L49.3795 63.7215L49.8643 63.1471L44.1176 58.2969Z" fill="#CDA7FF"/>
<path d="M35.0853 72.9551L34.7656 73.6354L41.5713 76.8341L41.891 76.1539L35.0853 72.9551Z" fill="#CDA7FF"/>
<path d="M30.2224 89.7018L30.0898 90.4417L37.4957 91.7681L37.6282 91.0282L30.2224 89.7018Z" fill="#CDA7FF"/>
<defs>
<linearGradient id="paint0_linear_1339_1418" x1="143.591" y1="88.7339" x2="144.084" y2="94.5651" gradientUnits="userSpaceOnUse">
<stop stop-color="#5417A3"/>
<stop offset="1" stop-color="#410F80"/>
</linearGradient>
<linearGradient id="paint1_linear_1339_1418" x1="95.059" y1="88.6288" x2="96.26" y2="102.825" gradientUnits="userSpaceOnUse">
<stop stop-color="#5417A3"/>
<stop offset="1" stop-color="#410F80"/>
</linearGradient>
</defs>
</svg>
