<svg width="132" height="126" viewBox="0 0 132 126" fill="none" xmlns="http://www.w3.org/2000/svg">
<path d="M121.002 60.8876C113.8 78.0972 124.351 102.148 95.0848 106.287C84.4594 107.79 77.1621 102.252 66.6488 107.647C48.0444 117.193 37.3439 115.653 30.076 107.031C24.6311 100.571 25.1882 92.3666 19.5184 88.6558C7.23641 80.6177 4.52086 69.5184 8.11942 56.6014C10.0115 49.81 16.316 45.5175 20.3029 41.0867C24.9726 35.8969 26.8404 29.4521 29.2569 24.0341C40.0197 -0.0981136 64.4693 17.3967 79.846 13.3032C93.3825 9.69954 99.9898 15.0772 103.6 22.8523C110.963 38.7081 132.134 34.2832 121.002 60.8876ZM127.463 71.0266C127.558 69.0819 126.055 67.428 124.107 67.3323C122.158 67.2369 120.501 68.7357 120.406 70.6804C120.31 72.6247 121.813 74.2789 123.762 74.3746C125.71 74.4703 127.367 72.9713 127.463 71.0266ZM80.5048 111.724C78.1595 109.142 74.1617 108.946 71.5752 111.286C68.9887 113.626 68.7932 117.616 71.1385 120.197C73.4837 122.779 77.4816 122.975 80.068 120.635C82.6545 118.296 82.8501 114.306 80.5048 111.724ZM6.8185 31.8537C7.75808 32.9099 9.37787 33.0059 10.4357 32.0682C11.4935 31.1305 11.5894 29.5143 10.6498 28.4584C9.70987 27.4022 8.09039 27.3062 7.03256 28.2439C5.97443 29.1816 5.87859 30.7978 6.8185 31.8537ZM106.92 21.2955C106.464 23.4906 107.879 25.6396 110.079 26.0949C112.279 26.5501 114.431 25.1394 114.887 22.944C115.343 20.7489 113.928 18.5999 111.728 18.1447C109.528 17.6894 107.376 19.1001 106.92 21.2955ZM69.6286 6.94453C69.2469 8.78353 70.4315 10.5839 72.2747 10.9652C74.1178 11.3466 75.9213 10.1649 76.303 8.32559C76.6846 6.4866 75.5001 4.68625 73.6569 4.30489C71.8141 3.92354 70.0103 5.10522 69.6286 6.94453ZM14.0466 31.2359C14.2789 33.9331 16.6584 35.9325 19.3611 35.7009C22.0637 35.4697 24.0666 33.0955 23.8339 30.3983C23.6016 27.7012 21.222 25.7021 18.5194 25.9334C15.8167 26.1646 13.8142 28.5388 14.0466 31.2359ZM115.578 18.1148C115.411 18.9184 115.929 19.7051 116.734 19.8716C117.539 20.0382 118.327 19.5219 118.494 18.7184C118.661 17.9149 118.143 17.1282 117.338 16.9616C116.533 16.795 115.744 17.3113 115.578 18.1148ZM20.8905 108.156C20.9783 109.176 21.8782 109.932 22.9002 109.844C23.9222 109.757 24.6795 108.859 24.5914 107.839C24.5036 106.819 23.6038 106.063 22.5817 106.151C21.5597 106.238 20.8024 107.136 20.8905 108.156ZM23.2321 99.708C23.359 97.1171 21.3572 94.9134 18.7609 94.7861C16.1647 94.6589 13.957 96.6557 13.8301 99.2469C13.7032 101.838 15.705 104.041 18.3012 104.169C20.8974 104.296 23.1051 102.299 23.2324 99.7083L23.2321 99.708Z" fill="url(#paint0_linear_1316_1482)"/>
<path d="M102.767 36.2013L33.9102 32.1179L31.1033 79.4493L99.96 83.5326L102.767 36.2013Z" fill="#ECDDFF"/>
<path d="M76.4207 85.732L53.9648 84.4003L53.4418 93.2205L75.8977 94.5522L76.4207 85.732Z" fill="white"/>
<path d="M84.0974 93.3512L45.4318 91.0583C44.3086 90.9917 43.3577 91.7574 43.2977 92.7682L43.197 94.4672C43.137 95.4781 43.9908 96.3508 45.114 96.4174L83.7796 98.7104C84.8963 98.7766 85.8544 98.011 85.9143 97.0005L86.0151 95.3015C86.075 94.2909 85.2141 93.4175 84.0974 93.3512Z" fill="white"/>
<path d="M104.257 33.0558L32.5407 28.8029C31.6923 28.7526 30.9713 29.3932 30.9215 30.2335L27.7882 83.0701C27.7383 83.9104 28.3785 84.6317 29.227 84.6821L100.943 88.935C101.784 88.9849 102.512 88.3446 102.562 87.5044L105.695 34.6677C105.745 33.8275 105.098 33.1057 104.257 33.0558L104.257 33.0558ZM97.9569 80.466L33.2007 76.6258L35.7234 34.0861L100.48 37.9263L97.9573 80.4661L97.9569 80.466Z" fill="white"/>
<path d="M89.3089 26.4469L48.1562 24.0065L45.2433 73.1271L86.396 75.5675L89.3089 26.4469Z" fill="#CDA7FF"/>
<path d="M53.6389 54.8629L80.224 56.4394C80.4669 56.4538 80.6512 56.6624 80.6369 56.9024C80.6227 57.1427 80.415 57.328 80.1721 57.3136L53.587 55.737C53.3441 55.7226 53.1598 55.514 53.1741 55.2741C53.1883 55.0335 53.3959 54.8484 53.6389 54.8629Z" fill="url(#paint1_linear_1316_1482)" stroke="url(#paint2_linear_1316_1482)"/>
<path d="M53.8849 50.6942L80.4698 52.2708C80.7131 52.2852 80.897 52.4934 80.8827 52.7337C80.8685 52.9741 80.6613 53.159 80.4179 53.1446L53.8331 51.5681C53.5898 51.5536 53.4059 51.3455 53.4202 51.1051C53.4344 50.8648 53.6416 50.6798 53.8849 50.6942Z" fill="url(#paint3_linear_1316_1482)" stroke="url(#paint4_linear_1316_1482)"/>
<path d="M53.1428 63.2011L79.7276 64.7776C79.9709 64.7921 80.1548 65.0003 80.1405 65.2406L80.1405 65.2409C80.1263 65.4813 79.9191 65.6662 79.6757 65.6518L53.0909 64.0753C52.8476 64.0608 52.6637 63.8527 52.678 63.6123L52.678 63.612C52.6922 63.3717 52.8994 63.1867 53.1428 63.2011Z" fill="url(#paint5_linear_1316_1482)" stroke="url(#paint6_linear_1316_1482)"/>
<path d="M52.8967 67.3704L74.3387 68.6419C74.582 68.6563 74.7659 68.8645 74.7516 69.1049L74.7516 69.1052C74.7373 69.3455 74.5302 69.5305 74.2868 69.5161L52.8448 68.2445C52.6015 68.2301 52.4176 68.0219 52.4319 67.7816L52.4319 67.7813C52.4461 67.5409 52.6533 67.3559 52.8967 67.3704Z" fill="url(#paint7_linear_1316_1482)" stroke="url(#paint8_linear_1316_1482)"/>
<path d="M53.3889 59.0325L79.9737 60.609C80.217 60.6234 80.4009 60.8316 80.3866 61.072C80.3724 61.3123 80.1652 61.4973 79.9218 61.4829L53.337 59.9063C53.0937 59.8919 52.9098 59.6837 52.9241 59.4434C52.9383 59.203 53.1455 59.018 53.3889 59.0325Z" fill="url(#paint9_linear_1316_1482)" stroke="url(#paint10_linear_1316_1482)"/>
<path d="M57.9241 37.5367C58.2438 32.1451 62.8992 28.0194 68.3019 28.3398C73.7047 28.6602 77.8399 33.3072 77.5201 38.6988C77.2004 44.0903 72.545 48.216 67.1422 47.8956C61.7395 47.5752 57.6043 42.9282 57.9241 37.5367Z" fill="url(#paint11_linear_1316_1482)"/>
<path d="M62.4322 43.4523L63.0203 40.0673C63.2506 38.7408 64.4424 37.7989 65.789 37.8788L69.6589 38.1083C71.0055 38.1882 72.0775 39.2643 72.1495 40.6087L72.3334 44.0395L62.4319 43.4523L62.4322 43.4523ZM68.0917 31.7948C66.6345 31.7084 65.3835 32.8171 65.2972 34.2713C65.211 35.7254 66.3223 36.9742 67.7794 37.0606C69.2366 37.147 70.4876 36.0383 70.5739 34.5842C70.6601 33.13 69.5488 31.8812 68.0917 31.7948Z" fill="white"/>
<defs>
<linearGradient id="paint0_linear_1316_1482" x1="69.5764" y1="4.02665" x2="62.6102" y2="121.497" gradientUnits="userSpaceOnUse">
<stop stop-color="#5417A3"/>
<stop offset="1" stop-color="#410F80"/>
</linearGradient>
<linearGradient id="paint1_linear_1316_1482" x1="66.961" y1="55.152" x2="66.85" y2="57.0244" gradientUnits="userSpaceOnUse">
<stop stop-color="#5417A3"/>
<stop offset="1" stop-color="#410F80"/>
</linearGradient>
<linearGradient id="paint2_linear_1316_1482" x1="52.6749" y1="55.2443" x2="81.136" y2="56.9321" gradientUnits="userSpaceOnUse">
<stop stop-color="#3D037C"/>
<stop offset="1" stop-color="#9713A5"/>
</linearGradient>
<linearGradient id="paint3_linear_1316_1482" x1="67.207" y1="50.9834" x2="67.0959" y2="52.8555" gradientUnits="userSpaceOnUse">
<stop stop-color="#5417A3"/>
<stop offset="1" stop-color="#410F80"/>
</linearGradient>
<linearGradient id="paint4_linear_1316_1482" x1="52.9211" y1="51.0755" x2="81.3818" y2="52.7633" gradientUnits="userSpaceOnUse">
<stop stop-color="#3D037C"/>
<stop offset="1" stop-color="#9713A5"/>
</linearGradient>
<linearGradient id="paint5_linear_1316_1482" x1="66.4648" y1="63.4903" x2="66.3537" y2="65.3627" gradientUnits="userSpaceOnUse">
<stop stop-color="#5417A3"/>
<stop offset="1" stop-color="#410F80"/>
</linearGradient>
<linearGradient id="paint6_linear_1316_1482" x1="52.1789" y1="63.5826" x2="80.6396" y2="65.2704" gradientUnits="userSpaceOnUse">
<stop stop-color="#3D037C"/>
<stop offset="1" stop-color="#9713A5"/>
</linearGradient>
<linearGradient id="paint7_linear_1316_1482" x1="63.6473" y1="67.507" x2="63.5362" y2="69.3794" gradientUnits="userSpaceOnUse">
<stop stop-color="#5417A3"/>
<stop offset="1" stop-color="#410F80"/>
</linearGradient>
<linearGradient id="paint8_linear_1316_1482" x1="51.9328" y1="67.7518" x2="75.2507" y2="69.1346" gradientUnits="userSpaceOnUse">
<stop stop-color="#3D037C"/>
<stop offset="1" stop-color="#9713A5"/>
</linearGradient>
<linearGradient id="paint9_linear_1316_1482" x1="66.7109" y1="59.3216" x2="66.5998" y2="61.1937" gradientUnits="userSpaceOnUse">
<stop stop-color="#5417A3"/>
<stop offset="1" stop-color="#410F80"/>
</linearGradient>
<linearGradient id="paint10_linear_1316_1482" x1="52.425" y1="59.4138" x2="80.8857" y2="61.1016" gradientUnits="userSpaceOnUse">
<stop stop-color="#3D037C"/>
<stop offset="1" stop-color="#9713A5"/>
</linearGradient>
<linearGradient id="paint11_linear_1316_1482" x1="68.3019" y1="28.3398" x2="67.1422" y2="47.8956" gradientUnits="userSpaceOnUse">
<stop stop-color="#5417A3"/>
<stop offset="1" stop-color="#410F80"/>
</linearGradient>
</defs>
</svg>
