<svg width="102" height="107" viewBox="0 0 102 107" fill="none" xmlns="http://www.w3.org/2000/svg">
<path d="M46.6671 102.928C38.8102 97.4464 32.4413 91.5073 27.2788 85.3546C19.7616 76.3941 14.828 66.9969 11.6384 57.9417C2.17713 31.0582 8.19278 7.26412 8.19278 7.26412C8.19278 7.26412 12.7735 12.4847 29.411 11.6885C46.8003 10.8666 54.7643 3.8128 54.7643 3.8128C54.7643 3.8128 61.4776 12.0658 78.5029 15.6994C94.7905 19.1857 100.158 14.7779 100.158 14.7779C100.158 14.7779 105.255 74.9026 46.6663 102.928L46.6671 102.928Z" fill="url(#paint0_linear_1364_1383)"/>
<g style="mix-blend-mode:overlay">
<path d="M77.1559 40.1395C77.0265 41.7232 76.3014 43.2642 75.0112 44.3764L51.469 64.677L47.7385 67.893L27.257 85.544C19.7661 76.5219 14.8526 67.0577 11.6785 57.9367L27.7979 44.0406C30.3782 41.8162 34.2407 42.1317 36.419 44.745L44.494 54.4044L67.104 34.913C69.678 32.694 73.5405 33.0096 75.7251 35.6174C75.8605 35.7792 75.9886 35.9465 76.1047 36.1187C76.9265 37.3285 77.2681 38.7556 77.155 40.1395L77.1559 40.1395Z" fill="#4D4D4D"/>
</g>
<path d="M75.7303 35.6236C73.5519 33.0087 69.6993 32.6939 67.1253 34.9205L44.5684 54.4328L36.5142 44.7651C34.3357 42.1502 30.4832 41.8354 27.9092 44.062C25.3352 46.2886 25.0145 50.2132 27.193 52.8281L39.1916 67.2304C40.2377 68.4861 41.7322 69.2659 43.3457 69.3977C44.9592 69.5295 46.5604 69.0027 47.7965 67.9335L75.0142 44.3888C77.5882 42.1622 77.9088 38.2376 75.7304 35.6227L75.7303 35.6236Z" fill="white"/>
<path d="M47.0718 97.9714L46.6063 97.628C32.2083 86.9859 21.9418 73.659 16.0906 58.018C9.42427 40.1991 10.0712 23.6704 11.0505 15.4039L11.1819 14.2938L12.2512 14.6239C16.9003 16.0586 22.6886 16.6263 29.4534 16.3094C40.9134 15.7747 48.9911 12.5266 53.7498 9.89462L54.2924 9.59466L54.7792 9.97872C59.0467 13.3481 66.4892 17.8643 77.7071 20.2519C84.3323 21.6628 90.1369 22.0423 94.9564 21.3812L96.0651 21.229L96.0145 22.3457C95.639 30.6616 93.5943 47.0769 84.1239 63.5791C75.8113 78.0628 63.5187 89.5457 47.586 97.7089L47.0709 97.9721L47.0718 97.9714ZM12.7804 16.7159C11.9015 25.1218 11.5905 40.6679 17.8371 57.3655C23.4965 72.4943 33.3922 85.4179 47.2505 95.7841C62.606 87.8056 74.4664 76.6604 82.5073 62.651C91.3816 47.1879 93.5983 31.7967 94.0954 23.3596C89.2954 23.8548 83.6586 23.423 77.3195 22.0727C66.1632 19.6987 58.6032 15.2634 54.1116 11.8182C49.1187 14.4876 40.9381 17.6377 29.5419 18.1692C23.0678 18.4717 17.4372 17.9838 12.7813 16.716L12.7804 16.7159Z" fill="white"/>
<defs>
<linearGradient id="paint0_linear_1364_1383" x1="54.7643" y1="3.8128" x2="46.6663" y2="102.928" gradientUnits="userSpaceOnUse">
<stop stop-color="#5417A3"/>
<stop offset="1" stop-color="#410F80"/>
</linearGradient>
</defs>
</svg>
