<svg width="86" height="110" viewBox="0 0 86 110" fill="none" xmlns="http://www.w3.org/2000/svg">
<path fill-rule="evenodd" clip-rule="evenodd" d="M23.1471 25.1735C22.5389 26.4484 17.0861 103.655 17.5648 104.213C17.7537 104.433 19.0454 103.383 20.4285 101.867C21.8111 100.358 23.1215 98.9807 23.3414 98.806C23.5607 98.6382 25.4198 96.6594 27.4853 94.4159C29.5439 92.1718 31.7376 89.8698 32.3519 89.308C32.9668 88.7394 34.2663 87.3268 35.2433 86.1698C37.2669 83.7586 38.5244 84.2885 39.0032 87.7451C39.1566 88.8603 39.5713 89.7971 39.9128 89.8239C40.2544 89.8506 40.5066 90.3157 40.4646 90.8537C40.4225 91.3917 41.4135 94.5389 42.6734 97.8509C43.927 101.156 45.1919 104.667 45.4794 105.649C45.7669 106.63 46.3346 107.456 46.7377 107.487C47.1407 107.519 49.8547 106.648 52.7645 105.56C55.6743 104.472 58.32 103.597 58.6411 103.622C58.9621 103.647 59.6178 103.26 60.1028 102.77C60.783 102.069 60.7145 101.276 59.7802 99.1612C59.1201 97.6706 58.6136 96.0619 58.6509 95.5852C58.6882 95.1085 58.4106 94.7031 58.0349 94.6737C57.6592 94.6443 57.3902 94.1299 57.437 93.5306C57.4839 92.9313 57.1484 91.5964 56.6865 90.5599C55.1724 87.1594 52.375 79.1637 52.433 78.4214C52.465 78.0128 53.6065 77.8279 55.0426 78.0087C56.4444 78.1869 62.7341 78.6992 69.0212 79.1566C77.8847 79.8017 80.3808 79.7845 80.1456 79.1014C79.9774 78.6155 78.0588 76.6086 75.8763 74.6359C73.6938 72.6632 70.714 69.8127 69.2589 68.2943C67.0022 65.9526 61.0155 60.0715 55.0706 54.358C54.2138 53.5373 52.1922 51.5292 50.5743 49.8953C48.9564 48.2613 46.2176 45.5805 44.4972 43.9385C42.77 42.2961 40.9069 40.458 40.35 39.8457C39.7931 39.2334 37.9084 37.4073 36.1602 35.7701C34.4114 34.1396 32.8459 32.6263 32.6701 32.4138C31.6241 31.1124 24.4114 24.2103 24.0699 24.1836C23.8376 24.1655 23.4315 24.6133 23.1608 25.1746" fill="url(#paint0_linear_1339_1380)"/>
<path fill-rule="evenodd" clip-rule="evenodd" d="M24.5105 2.26596C23.7956 2.62114 23.6576 4.20672 23.8507 9.71661C24.1005 16.8341 24.9462 19.6477 25.9266 16.6138C26.8246 13.827 28.7678 2.96198 28.4332 2.57954C27.9054 1.97646 25.4815 1.77322 24.511 2.25915" fill="#CDA7FF"/>
<path fill-rule="evenodd" clip-rule="evenodd" d="M9.43784 7.21282C7.33673 9.16776 7.34483 10.0258 9.48518 11.6781C11.5415 13.2679 11.88 13.5732 14.4334 16.1501C16.6255 18.364 19.8955 20.6065 19.9481 19.9344C19.9822 19.4979 11.5135 5.75781 11.1942 5.73284C11.1127 5.72647 10.3225 6.38968 9.43838 7.20589" fill="#CDA7FF"/>
<path fill-rule="evenodd" clip-rule="evenodd" d="M39.6159 9.20272C36.4008 12.5687 30.1877 19.9092 30.1496 20.3958C30.0841 21.2338 30.2523 21.1654 34.1619 18.7241C36.1593 17.4795 38.4895 16.057 39.3428 15.5594C41.7731 14.1583 43.6431 12.7202 43.6822 12.2201C43.7018 11.9701 43.051 10.9196 42.2358 9.89034C40.8031 8.07842 40.717 8.05129 39.6159 9.20272Z" fill="#CDA7FF"/>
<path fill-rule="evenodd" clip-rule="evenodd" d="M40.7002 25.1719C37.0087 25.3164 33.6185 25.6111 33.1701 25.8293C31.4552 26.6748 32.3796 27.4867 35.3253 27.7171C37.0124 27.849 39.114 28.2865 40.0008 28.6891C40.8877 29.0916 42.9814 29.6285 44.6455 29.8786C47.6437 30.3262 47.6872 30.303 48.0804 28.1213C48.3007 26.9057 48.2359 25.6879 47.9445 25.4118C47.6525 25.1424 44.3912 25.034 40.6933 25.1714" fill="#CDA7FF"/>
<path fill-rule="evenodd" clip-rule="evenodd" d="M17.4636 26.0722C17.4419 26.3487 16.2063 27.2428 14.7213 28.0632C13.2367 28.8768 11.652 29.825 11.1979 30.1628C10.7439 30.5005 9.64218 31.1812 8.75568 31.6683C5.15903 33.6468 4.90853 34.1158 6.43156 35.9856C7.20626 36.9284 8.1919 37.7316 8.63067 37.7659C9.06944 37.8002 10.574 36.4656 11.98 34.8044C13.3859 33.1432 15.6489 30.6669 17.0105 29.3076C19.7418 26.576 20.0809 25.7679 18.5452 25.6478C17.983 25.6038 17.4989 25.7967 17.4704 26.0727" fill="#CDA7FF"/>
<defs>
<linearGradient id="paint0_linear_1339_1380" x1="53.5649" y1="26.4899" x2="47.2285" y2="107.526" gradientUnits="userSpaceOnUse">
<stop stop-color="#5417A3"/>
<stop offset="1" stop-color="#410F80"/>
</linearGradient>
</defs>
</svg>
