<svg width="63" height="63" viewBox="0 0 63 63" fill="none" xmlns="http://www.w3.org/2000/svg">
<path d="M40.2944 32.9391C41.0971 40.8221 51.7144 40.8093 52.7665 32.9391H63V58.0431C63 59.4534 61.1612 61.6728 59.8884 62.2868C59.6421 62.4052 57.8385 63 57.7234 63H33.4188L32.9391 62.5203V49.5685C30.2464 50.1537 27.1636 49.997 27.154 46.5336C27.1444 43.0702 30.3808 43.0958 32.9391 43.4924V33.4188L33.4188 32.9391H40.2944Z" fill="url(#paint0_linear_1317_1715)"/>
<path d="M18.5482 32.9391H30.0609V40.2944C23.7161 41.0395 21.727 48.9769 27.6048 52.1845C28.3915 52.613 29.4117 52.5522 30.0609 53.2462V62.5203L29.5812 63H5.59644C4.63705 63 2.44005 62.0118 1.71411 61.2859C1.11289 60.6847 0 58.4845 0 57.7233V33.4188L0.479695 32.9391H12.7919C10.307 24.8834 20.8411 24.9442 18.5482 32.9391Z" fill="url(#paint1_linear_1317_1715)"/>
<path d="M30.0609 0V13.2716C30.774 14.0903 31.9189 13.0061 33.0702 13.1181C36.9973 13.4954 36.9813 19.4085 33.0286 19.7571C31.9733 19.8498 30.7516 18.8616 30.0641 19.6707V29.5844L29.5844 30.0641H22.2291C21.34 28.1165 21.3112 26.8501 19.5172 25.4207C15.4878 22.2067 9.94567 24.7235 9.53953 29.6835C9.51715 29.7187 8.83918 30.0641 8.79761 30.0641H0.479695L0 29.5844V5.27665C0 3.36746 2.69908 0 4.63705 0H30.0609Z" fill="url(#paint2_linear_1317_1715)"/>
<path d="M49.2487 30.0609C51.9286 37.7296 41.2026 38.0047 43.4923 30.0609H33.4187L32.9391 29.5812V22.7056C38.9448 22.5265 41.3977 14.2533 36.0443 11.1257C35.0273 10.5309 33.8313 10.5021 32.9391 9.75381V0.479695L33.4187 0H58.3629C58.4748 0 60.2113 0.697157 60.4192 0.821878C61.3402 1.37832 62.9999 3.6233 62.9999 4.63705V29.5812L62.5202 30.0609H49.2487Z" fill="url(#paint3_linear_1317_1715)"/>
<defs>
<linearGradient id="paint0_linear_1317_1715" x1="31.5" y1="0" x2="31.5" y2="63" gradientUnits="userSpaceOnUse">
<stop stop-color="#5417A3"/>
<stop offset="1" stop-color="#410F80"/>
</linearGradient>
<linearGradient id="paint1_linear_1317_1715" x1="31.5" y1="0" x2="31.5" y2="63" gradientUnits="userSpaceOnUse">
<stop stop-color="#5417A3"/>
<stop offset="1" stop-color="#410F80"/>
</linearGradient>
<linearGradient id="paint2_linear_1317_1715" x1="31.5" y1="0" x2="31.5" y2="63" gradientUnits="userSpaceOnUse">
<stop stop-color="#5417A3"/>
<stop offset="1" stop-color="#410F80"/>
</linearGradient>
<linearGradient id="paint3_linear_1317_1715" x1="31.5" y1="0" x2="31.5" y2="63" gradientUnits="userSpaceOnUse">
<stop stop-color="#5417A3"/>
<stop offset="1" stop-color="#410F80"/>
</linearGradient>
</defs>
</svg>
