<svg width="63" height="63" viewBox="0 0 63 63" fill="none" xmlns="http://www.w3.org/2000/svg">
<path d="M5.20335 0.271498C11.3163 0.647685 18.5108 -0.435552 24.4985 0.210311C26.707 0.448261 28.863 2.17963 29.4641 4.3325C30.3474 7.49157 30.1198 19.6995 29.8557 23.4501C29.628 26.6998 28.1709 29.3376 24.7239 29.8996C18.4789 29.4781 11.519 30.4548 5.36044 29.9064C2.62383 29.6639 0.602099 27.4363 0.244654 24.8007C0.836601 18.6797 -0.552197 11.0404 0.265145 5.10301C0.586162 2.80283 2.91297 0.595563 5.20335 0.271498Z" fill="url(#paint0_linear_1317_1713)"/>
<path d="M4.74331 33.1244C11.068 33.589 18.7975 32.3199 24.9583 33.0655C26.9072 33.3012 28.9904 35.2954 29.5095 37.1469C30.3382 40.0997 30.1242 52.7428 29.8578 56.3075C29.5914 59.8722 27.9476 62.1792 24.2685 62.7548C18.308 62.3741 11.7032 63.2715 5.82247 62.7661C2.93332 62.5168 0.759052 60.4818 0.251344 57.6604C0.820524 51.5009 -0.515911 43.9568 0.271834 37.9627C0.581468 35.6104 2.47342 33.6909 4.74559 33.1244H4.74331Z" fill="url(#paint1_linear_1317_1713)"/>
<path d="M60.5007 1.87825C61.5776 2.93656 62.0739 4.26454 62.1855 5.75342C62.6522 11.965 61.8166 18.7523 62.1763 25.0273C61.7802 27.5405 59.6469 29.6775 57.0628 29.9087C50.9066 30.4549 43.9444 29.4804 37.7016 29.8996C34.9901 29.4192 33.0048 27.3502 32.7976 24.5832C32.324 18.2968 33.171 11.4325 32.8067 5.0849C33.2529 2.54904 35.4044 0.640909 37.9293 0.2126C44.0104 0.559326 50.5901 -0.247436 56.6075 0.203535C57.9576 0.305513 59.5308 0.928715 60.5007 1.88051V1.87825Z" fill="url(#paint2_linear_1317_1713)"/>
<path d="M44.1397 33.1357C53.8522 31.98 61.3266 40.1337 58.8792 49.62C58.6811 50.3882 57.3242 52.9173 57.4243 53.307C59.0112 55.7523 64.917 58.5873 62.3716 61.9344C59.5849 65.5966 55.48 58.7572 53.3627 57.3499C52.0991 57.6241 51.1133 58.4037 49.8315 58.7436C39.3016 61.5401 30.3359 51.3672 34.1312 41.3031C35.6293 37.3327 39.8412 33.6456 44.1397 33.1357ZM45.0435 36.7548C33.5347 38.2142 34.8689 56.0899 46.8034 55.503C59.2616 54.8888 57.866 35.13 45.0435 36.7548Z" fill="url(#paint3_linear_1317_1713)"/>
<defs>
<linearGradient id="paint0_linear_1317_1713" x1="31.5" y1="0" x2="31.5" y2="63" gradientUnits="userSpaceOnUse">
<stop stop-color="#5417A3"/>
<stop offset="1" stop-color="#410F80"/>
</linearGradient>
<linearGradient id="paint1_linear_1317_1713" x1="31.5" y1="0" x2="31.5" y2="63" gradientUnits="userSpaceOnUse">
<stop stop-color="#5417A3"/>
<stop offset="1" stop-color="#410F80"/>
</linearGradient>
<linearGradient id="paint2_linear_1317_1713" x1="31.5" y1="0" x2="31.5" y2="63" gradientUnits="userSpaceOnUse">
<stop stop-color="#5417A3"/>
<stop offset="1" stop-color="#410F80"/>
</linearGradient>
<linearGradient id="paint3_linear_1317_1713" x1="31.5" y1="0" x2="31.5" y2="63" gradientUnits="userSpaceOnUse">
<stop stop-color="#5417A3"/>
<stop offset="1" stop-color="#410F80"/>
</linearGradient>
</defs>
</svg>
